<svg width="30" height="30" viewBox="0 0 30 30" fill="none" xmlns="http://www.w3.org/2000/svg">
<path d="M21.6667 0C22.0749 5.38509e-05 22.4689 0.149927 22.774 0.421192C23.079 0.692457 23.2739 1.06625 23.3217 1.47167L23.3333 1.66667V3.33333H26.6667C27.5076 3.33307 28.3176 3.65068 28.9342 4.22249C29.5509 4.79431 29.9286 5.57807 29.9917 6.41667L30 6.66667V26.6667C30.0003 27.5076 29.6827 28.3176 29.1108 28.9342C28.539 29.5509 27.7553 29.9286 26.9167 29.9917L26.6667 30H3.33333C2.49237 30.0003 1.68239 29.6827 1.06575 29.1108C0.449118 28.539 0.0714057 27.7553 0.00833369 26.9167L1.67113e-07 26.6667V6.66667C-0.000265965 5.82571 0.317344 5.01572 0.889162 4.39909C1.46098 3.78245 2.24474 3.40474 3.08333 3.34167L3.33333 3.33333H6.66667V1.66667C6.66714 1.24187 6.8298 0.83328 7.12141 0.524386C7.41303 0.215493 7.81159 0.0296083 8.23566 0.00471314C8.65973 -0.0201821 9.0773 0.117791 9.40305 0.390441C9.72881 0.663092 9.93816 1.04984 9.98833 1.47167L10 1.66667V3.33333H20V1.66667C20 1.22464 20.1756 0.800716 20.4882 0.488155C20.8007 0.175595 21.2246 0 21.6667 0ZM26.6667 15H3.33333V26.6667H26.6667V15ZM26.6667 6.66667H3.33333V11.6667H26.6667V6.66667Z" fill="white"/>
</svg>
