<svg width="34" height="34" viewBox="0 0 34 34" fill="none" xmlns="http://www.w3.org/2000/svg">
<path d="M17 0.333313C26.205 0.333313 33.6667 7.79498 33.6667 17C33.6667 26.205 26.205 33.6666 17 33.6666C7.79501 33.6666 0.333344 26.205 0.333344 17C0.333344 7.79498 7.79501 0.333313 17 0.333313ZM17 3.66665C13.4638 3.66665 10.0724 5.0714 7.57192 7.57189C5.07143 10.0724 3.66668 13.4638 3.66668 17C3.66668 20.5362 5.07143 23.9276 7.57192 26.4281C10.0724 28.9286 13.4638 30.3333 17 30.3333C20.5362 30.3333 23.9276 28.9286 26.4281 26.4281C28.9286 23.9276 30.3333 20.5362 30.3333 17C30.3333 13.4638 28.9286 10.0724 26.4281 7.57189C23.9276 5.0714 20.5362 3.66665 17 3.66665ZM17 23.6666C17.442 23.6666 17.866 23.8422 18.1785 24.1548C18.4911 24.4674 18.6667 24.8913 18.6667 25.3333C18.6667 25.7753 18.4911 26.1993 18.1785 26.5118C17.866 26.8244 17.442 27 17 27C16.558 27 16.1341 26.8244 15.8215 26.5118C15.5089 26.1993 15.3333 25.7753 15.3333 25.3333C15.3333 24.8913 15.5089 24.4674 15.8215 24.1548C16.1341 23.8422 16.558 23.6666 17 23.6666ZM17 7.83331C18.4038 7.83336 19.7638 8.32224 20.8463 9.21598C21.9288 10.1097 22.6664 11.3525 22.9322 12.7309C23.198 14.1093 22.9755 15.5373 22.303 16.7695C21.6304 18.0017 20.5498 18.9613 19.2467 19.4833C19.0537 19.5543 18.8797 19.6689 18.7383 19.8183C18.665 19.9016 18.6533 20.0083 18.655 20.1183L18.6667 20.3333C18.6662 20.7581 18.5035 21.1667 18.2119 21.4756C17.9203 21.7845 17.5218 21.9704 17.0977 21.9953C16.6736 22.0202 16.256 21.8822 15.9303 21.6095C15.6045 21.3369 15.3952 20.9501 15.345 20.5283L15.3333 20.3333V19.9166C15.3333 17.995 16.8833 16.8416 18.0067 16.39C18.4639 16.2074 18.8627 15.9038 19.1603 15.5116C19.4579 15.1195 19.6431 14.6537 19.696 14.1642C19.7489 13.6748 19.6674 13.1802 19.4604 12.7335C19.2534 12.2869 18.9286 11.9051 18.5209 11.6291C18.1132 11.3531 17.6381 11.1934 17.1465 11.1671C16.6549 11.1408 16.1655 11.2489 15.7307 11.4798C15.2959 11.7107 14.9322 12.0556 14.6787 12.4776C14.4251 12.8996 14.2914 13.3827 14.2917 13.875C14.2917 14.317 14.1161 14.7409 13.8035 15.0535C13.491 15.3661 13.067 15.5416 12.625 15.5416C12.183 15.5416 11.7591 15.3661 11.4465 15.0535C11.1339 14.7409 10.9583 14.317 10.9583 13.875C10.9583 12.2726 11.5949 10.7359 12.7279 9.60288C13.8609 8.46984 15.3977 7.83331 17 7.83331Z" fill="white"/>
</svg>
