<svg width="34" height="34" viewBox="0 0 34 34" fill="none" xmlns="http://www.w3.org/2000/svg">
<path d="M17 30.3333C20.5362 30.3333 23.9276 28.9286 26.4281 26.4281C28.9286 23.9276 30.3333 20.5362 30.3333 17C30.3333 13.4638 28.9286 10.0724 26.4281 7.57189C23.9276 5.0714 20.5362 3.66665 17 3.66665C13.4638 3.66665 10.0724 5.0714 7.57192 7.57189C5.07143 10.0724 3.66668 13.4638 3.66668 17C3.66668 20.5362 5.07143 23.9276 7.57192 26.4281C10.0724 28.9286 13.4638 30.3333 17 30.3333ZM17 0.333313C19.1887 0.333313 21.356 0.764409 23.3781 1.60199C25.4002 2.43957 27.2375 3.66722 28.7851 5.21487C30.3328 6.76251 31.5604 8.59983 32.398 10.6219C33.2356 12.644 33.6667 14.8113 33.6667 17C33.6667 21.4203 31.9107 25.6595 28.7851 28.7851C25.6595 31.9107 21.4203 33.6666 17 33.6666C7.78334 33.6666 0.333344 26.1666 0.333344 17C0.333344 12.5797 2.08929 8.34047 5.2149 5.21487C8.3405 2.08926 12.5797 0.333313 17 0.333313ZM17.8333 8.66665V17.4166L25.3333 21.8666L24.0833 23.9166L15.3333 18.6666V8.66665H17.8333Z" fill="white"/>
</svg>
