<svg width="30" height="38" viewBox="0 0 30 38" fill="none" xmlns="http://www.w3.org/2000/svg">
<path d="M20 30.6667C20 31.9928 19.4732 33.2645 18.5355 34.2022C17.5979 35.1399 16.3261 35.6667 15 35.6667C13.6739 35.6667 12.4021 35.1399 11.4645 34.2022C10.5268 33.2645 10 31.9928 10 30.6667M16.2017 7.33834L13.7583 7.33334C8.185 7.32001 3.34667 11.8483 3.30833 17.3333V23.65C3.30833 24.9667 3.14167 26.2517 2.42333 27.3467L1.945 28.0767C1.21667 29.1833 2 30.6667 3.30833 30.6667H26.6917C28 30.6667 28.7817 29.1833 28.055 28.0767L27.5767 27.3467C26.86 26.2517 26.6917 24.965 26.6917 23.6483V17.335C26.625 11.8483 21.775 7.35168 16.2017 7.33834Z" stroke="white" stroke-width="3.33333" stroke-linecap="round" stroke-linejoin="round"/>
<path d="M15 2.33331C15.884 2.33331 16.7319 2.6845 17.357 3.30962C17.9821 3.93474 18.3333 4.78259 18.3333 5.66665V7.33331H11.6667V5.66665C11.6667 4.78259 12.0178 3.93474 12.643 3.30962C13.2681 2.6845 14.1159 2.33331 15 2.33331Z" stroke="white" stroke-width="3.33333" stroke-linecap="round" stroke-linejoin="round"/>
</svg>
