<svg width="30" height="30" viewBox="0 0 30 30" fill="none" xmlns="http://www.w3.org/2000/svg">
<path d="M1.66669 25C1.66669 23.2319 2.36907 21.5362 3.61931 20.286C4.86955 19.0358 6.56524 18.3334 8.33335 18.3334H21.6667C23.4348 18.3334 25.1305 19.0358 26.3807 20.286C27.631 21.5362 28.3334 23.2319 28.3334 25C28.3334 25.8841 27.9822 26.7319 27.357 27.3571C26.7319 27.9822 25.8841 28.3334 25 28.3334H5.00002C4.11597 28.3334 3.26812 27.9822 2.643 27.3571C2.01788 26.7319 1.66669 25.8841 1.66669 25Z" stroke="white" stroke-width="2.5" stroke-linejoin="round"/>
<path d="M15 11.6667C17.7614 11.6667 20 9.42811 20 6.66669C20 3.90526 17.7614 1.66669 15 1.66669C12.2386 1.66669 10 3.90526 10 6.66669C10 9.42811 12.2386 11.6667 15 11.6667Z" stroke="white" stroke-width="2.5"/>
</svg>
